<svg width="20" height="20" viewBox="0 0 20 20" fill="none" xmlns="http://www.w3.org/2000/svg">
<path d="M10.0002 17C10.9462 17 11.8102 16.897 12.5982 16.719L10.8412 14.962C10.5682 14.983 10.2912 15 10.0002 15C4.64924 15 2.57624 11.154 2.07424 9.99997C2.27824 9.52997 2.74824 8.61897 3.58224 7.70297L2.18424 6.30497C0.646238 7.97197 0.0632383 9.65097 0.0522383 9.68397C-0.0167617 9.88897 -0.0167617 10.112 0.0522383 10.317C0.0732383 10.383 2.36724 17 10.0002 17ZM10.0002 2.99997C8.16324 2.99997 6.65424 3.39597 5.39624 3.98097L1.70724 0.292969L0.293238 1.70697L18.2932 19.707L19.7072 18.293L16.3882 14.974C19.0022 13.023 19.9352 10.359 19.9492 10.317C20.0182 10.112 20.0182 9.88897 19.9492 9.68397C19.9272 9.61697 17.6332 2.99997 10.0002 2.99997ZM14.9722 13.558L12.6922 11.278C12.8822 10.888 13.0002 10.459 13.0002 9.99997C13.0002 8.35897 11.6412 6.99997 10.0002 6.99997C9.54124 6.99997 9.11224 7.11797 8.72324 7.30897L6.91524 5.50097C7.79624 5.19297 8.81424 4.99997 10.0002 4.99997C15.3512 4.99997 17.4242 8.84597 17.9262 9.99997C17.6242 10.692 16.7602 12.342 14.9722 13.558Z" fill="#373654"/>
</svg>
